<svg width="256" height="256" viewBox="0 0 256 256" fill="none" xmlns="http://www.w3.org/2000/svg">
<rect width="256" height="256" fill="#15A4C1"/>
<path d="M154.244 204H86.2322V182.425C51.6499 142.682 52.8027 82.4279 88.5377 62.6271C120.238 45.0619 149.584 51.3053 168.077 66.6013C186.164 81.5614 184.792 107.481 184.792 107.481L205 146.088L184.792 151.766V165.96C184.792 182.425 178.452 182.425 171.535 182.425H154.244V204Z" fill="white" stroke="black" stroke-width="3" stroke-linejoin="round"/>
<line y1="-0.5" x2="39.2083" y2="-0.5" transform="matrix(0.943656 -0.330929 0.341809 0.939769 89.7208 91.0704)" stroke="black"/>
<line y1="-0.5" x2="39.6566" y2="-0.5" transform="matrix(0.932988 0.359907 -0.371461 0.928449 89.7208 91.0704)" stroke="black"/>
<line y1="-0.5" x2="55.6138" y2="-0.5" transform="matrix(0.665287 0.746587 -0.75849 0.651685 89.7208 91.0704)" stroke="black"/>
<line y1="-0.5" x2="78.0899" y2="-0.5" transform="matrix(0.473802 0.880631 -0.887669 0.460482 89.7208 91.0704)" stroke="black"/>
<line y1="-0.5" x2="54.6519" y2="-0.5" transform="matrix(0.676997 -0.735986 0.748147 0.663533 89.7208 118.318)" stroke="black"/>
<line y1="-0.5" x2="39.2083" y2="-0.5" transform="matrix(0.943656 -0.330929 0.341809 0.939769 89.7208 118.318)" stroke="black"/>
<line y1="-0.5" x2="39.6566" y2="-0.5" transform="matrix(0.932988 0.359907 -0.371461 0.928449 89.7208 118.318)" stroke="black"/>
<line y1="-0.5" x2="55.6138" y2="-0.5" transform="matrix(0.665287 0.746587 -0.75849 0.651685 89.7208 118.318)" stroke="black"/>
<line y1="-0.5" x2="76.9497" y2="-0.5" transform="matrix(0.480822 -0.876818 0.884037 0.467417 89.7208 145.566)" stroke="black"/>
<line y1="-0.5" x2="54.6519" y2="-0.5" transform="matrix(0.676997 -0.735986 0.748147 0.663533 89.7208 145.566)" stroke="black"/>
<line y1="-0.5" x2="39.2083" y2="-0.5" transform="matrix(0.943656 -0.330929 0.341809 0.939769 89.7208 145.566)" stroke="black"/>
<line y1="-0.5" x2="39.6566" y2="-0.5" transform="matrix(0.932988 0.359907 -0.371461 0.928449 89.7208 145.566)" stroke="black"/>
<line y1="-0.5" x2="45.9498" y2="-0.5" transform="matrix(0.805208 0.592992 -0.606998 0.794704 126.72 78.0952)" stroke="black"/>
<line x1="126.72" y1="104.843" x2="163.719" y2="104.843" stroke="black"/>
<line y1="-0.5" x2="45.9498" y2="-0.5" transform="matrix(0.805208 -0.592992 0.606998 0.794704 126.72 132.591)" stroke="black"/>
<line y1="-0.5" x2="65.869" y2="-0.5" transform="matrix(0.561708 -0.827335 0.836674 0.547702 126.72 159.839)" stroke="black"/>
<line y1="-0.5" x2="65.869" y2="-0.5" transform="matrix(0.561708 0.827335 -0.836674 0.547702 126.72 78.0952)" stroke="black"/>
<line y1="-0.5" x2="45.9498" y2="-0.5" transform="matrix(0.805208 0.592992 -0.606998 0.794704 126.72 105.343)" stroke="black"/>
<line x1="126.72" y1="132.091" x2="163.719" y2="132.091" stroke="black"/>
<line y1="-0.5" x2="45.9498" y2="-0.5" transform="matrix(0.805208 -0.592992 0.606998 0.794704 126.72 159.839)" stroke="black"/>
<path d="M99.792 91.0704C99.792 96.5185 95.2916 100.951 89.7208 100.951C84.15 100.951 79.6497 96.5185 79.6497 91.0704C79.6497 85.6224 84.15 81.1903 89.7208 81.1903C95.2916 81.1903 99.792 85.6224 99.792 91.0704Z" fill="#15A4C1" stroke="black"/>
<path d="M99.792 118.318C99.792 123.766 95.2916 128.199 89.7208 128.199C84.15 128.199 79.6497 123.766 79.6497 118.318C79.6497 112.87 84.15 108.438 89.7208 108.438C95.2916 108.438 99.792 112.87 99.792 118.318Z" fill="#15A4C1" stroke="black"/>
<path d="M99.792 145.566C99.792 151.014 95.2916 155.446 89.7208 155.446C84.15 155.446 79.6497 151.014 79.6497 145.566C79.6497 140.118 84.15 135.686 89.7208 135.686C95.2916 135.686 99.792 140.118 99.792 145.566Z" fill="#15A4C1" stroke="black"/>
<path d="M136.791 78.0952C136.791 83.5433 132.291 87.9754 126.72 87.9754C121.149 87.9754 116.649 83.5433 116.649 78.0952C116.649 72.6471 121.149 68.2151 126.72 68.2151C132.291 68.2151 136.791 72.6471 136.791 78.0952Z" fill="#15A4C1" stroke="black"/>
<path d="M136.791 105.343C136.791 110.791 132.291 115.223 126.72 115.223C121.149 115.223 116.649 110.791 116.649 105.343C116.649 99.8951 121.149 95.463 126.72 95.463C132.291 95.463 136.791 99.8951 136.791 105.343Z" fill="#15A4C1" stroke="black"/>
<path d="M136.791 132.591C136.791 138.039 132.291 142.471 126.72 142.471C121.149 142.471 116.649 138.039 116.649 132.591C116.649 127.143 121.149 122.711 126.72 122.711C132.291 122.711 136.791 127.143 136.791 132.591Z" fill="#15A4C1" stroke="black"/>
<path d="M173.79 105.343C173.79 110.791 169.29 115.223 163.719 115.223C158.148 115.223 153.648 110.791 153.648 105.343C153.648 99.8951 158.148 95.463 163.719 95.463C169.29 95.463 173.79 99.8951 173.79 105.343Z" fill="#15A4C1" stroke="black"/>
<path d="M173.79 132.591C173.79 138.039 169.29 142.471 163.719 142.471C158.148 142.471 153.648 138.039 153.648 132.591C153.648 127.143 158.148 122.711 163.719 122.711C169.29 122.711 173.79 127.143 173.79 132.591Z" fill="#15A4C1" stroke="black"/>
<path d="M136.791 159.839C136.791 165.287 132.291 169.719 126.72 169.719C121.149 169.719 116.649 165.287 116.649 159.839C116.649 154.391 121.149 149.959 126.72 149.959C132.291 149.959 136.791 154.391 136.791 159.839Z" fill="#15A4C1" stroke="black"/>
</svg>
